<svg id="SvgjsSvg1045" width="297" height="70" xmlns="http://www.w3.org/2000/svg" version="1.1" xmlns:xlink="http://www.w3.org/1999/xlink" xmlns:svgjs="http://svgjs.com/svgjs" class="apexcharts-svg" xmlns:data="ApexChartsNS" transform="translate(0, 0)" style="background: transparent;"><g id="SvgjsG1047" class="apexcharts-inner apexcharts-graphical" transform="translate(0, 0)"><defs id="SvgjsDefs1046"><clipPath id="gridRectMaskotzjwb6lh"><rect id="SvgjsRect1052" width="303.5" height="72.5" x="-3.25" y="-1.25" rx="0" ry="0" opacity="1" stroke-width="0" stroke="none" stroke-dasharray="0" fill="#fff"></rect></clipPath><clipPath id="gridRectMarkerMaskotzjwb6lh"><rect id="SvgjsRect1053" width="301" height="74" x="-2" y="-2" rx="0" ry="0" opacity="1" stroke-width="0" stroke="none" stroke-dasharray="0" fill="#fff"></rect></clipPath><linearGradient id="SvgjsLinearGradient1058" x1="0" y1="0" x2="0" y2="1"><stop id="SvgjsStop1059" stop-opacity="0.7" stop-color="rgba(40,199,111,0.7)" offset="0"></stop><stop id="SvgjsStop1060" stop-opacity="0.5" stop-color="rgba(234,249,241,0.5)" offset="0.8"></stop><stop id="SvgjsStop1061" stop-opacity="0.5" stop-color="rgba(234,249,241,0.5)" offset="1"></stop></linearGradient></defs><line id="SvgjsLine1051" x1="0" y1="0" x2="0" y2="70" stroke="" stroke-dasharray="3" class="apexcharts-xcrosshairs" x="0" y="0" width="1" height="70" fill="#b1b9c4" filter="none" fill-opacity="0.9" stroke-width="1"></line><g id="SvgjsG1064" class="apexcharts-xaxis" transform="translate(0, 0)"><g id="SvgjsG1065" class="apexcharts-xaxis-texts-g" transform="translate(0, -4)"></g></g><g id="SvgjsG1067" class="apexcharts-grid"><g id="SvgjsG1068" class="apexcharts-gridlines-horizontal" style="display: none;"><line id="SvgjsLine1070" x1="0" y1="0" x2="297" y2="0" stroke="#e0e0e0" stroke-dasharray="0" class="apexcharts-gridline"></line><line id="SvgjsLine1071" x1="0" y1="14" x2="297" y2="14" stroke="#e0e0e0" stroke-dasharray="0" class="apexcharts-gridline"></line><line id="SvgjsLine1072" x1="0" y1="28" x2="297" y2="28" stroke="#e0e0e0" stroke-dasharray="0" class="apexcharts-gridline"></line><line id="SvgjsLine1073" x1="0" y1="42" x2="297" y2="42" stroke="#e0e0e0" stroke-dasharray="0" class="apexcharts-gridline"></line><line id="SvgjsLine1074" x1="0" y1="56" x2="297" y2="56" stroke="#e0e0e0" stroke-dasharray="0" class="apexcharts-gridline"></line><line id="SvgjsLine1075" x1="0" y1="70" x2="297" y2="70" stroke="#e0e0e0" stroke-dasharray="0" class="apexcharts-gridline"></line></g><g id="SvgjsG1069" class="apexcharts-gridlines-vertical" style="display: none;"></g><line id="SvgjsLine1077" x1="0" y1="70" x2="297" y2="70" stroke="transparent" stroke-dasharray="0"></line><line id="SvgjsLine1076" x1="0" y1="1" x2="0" y2="70" stroke="transparent" stroke-dasharray="0"></line></g><g id="SvgjsG1054" class="apexcharts-area-series apexcharts-plot-series"><g id="SvgjsG1055" class="apexcharts-series" seriesName="Revenue" data:longestSeries="true" rel="1" data:realIndex="0"><path id="SvgjsPath1062" d="M0 70L0 46C20.79 46 38.61 26 59.4 26C80.19 26 98.00999999999999 46 118.8 46C139.59 46 157.41000000000003 14 178.20000000000002 14C198.99 14 216.81 54 237.6 54C258.39 54 276.21 6 297 6C297 6 297 6 297 70M297 6C297 6 297 6 297 6 " fill="url(#SvgjsLinearGradient1058)" fill-opacity="1" stroke-opacity="1" stroke-linecap="butt" stroke-width="0" stroke-dasharray="0" class="apexcharts-area" index="0" clip-path="url(#gridRectMaskotzjwb6lh)" pathTo="M 0 70L 0 46C 20.79 46 38.61 26 59.4 26C 80.19 26 98.00999999999999 46 118.8 46C 139.59 46 157.41000000000003 14 178.20000000000002 14C 198.99 14 216.81 54 237.6 54C 258.39 54 276.21 6 297 6C 297 6 297 6 297 70M 297 6z" pathFrom="M -1 126L -1 126L 59.4 126L 118.8 126L 178.20000000000002 126L 237.6 126L 297 126"></path><path id="SvgjsPath1063" d="M0 46C20.79 46 38.61 26 59.4 26C80.19 26 98.00999999999999 46 118.8 46C139.59 46 157.41000000000003 14 178.20000000000002 14C198.99 14 216.81 54 237.6 54C258.39 54 276.21 6 297 6C297 6 297 6 297 6 " fill="none" fill-opacity="1" stroke="#28c76f" stroke-opacity="1" stroke-linecap="butt" stroke-width="2.5" stroke-dasharray="0" class="apexcharts-area" index="0" clip-path="url(#gridRectMaskotzjwb6lh)" pathTo="M 0 46C 20.79 46 38.61 26 59.4 26C 80.19 26 98.00999999999999 46 118.8 46C 139.59 46 157.41000000000003 14 178.20000000000002 14C 198.99 14 216.81 54 237.6 54C 258.39 54 276.21 6 297 6" pathFrom="M -1 126L -1 126L 59.4 126L 118.8 126L 178.20000000000002 126L 237.6 126L 297 126"></path><g id="SvgjsG1056" class="apexcharts-series-markers-wrap" data:realIndex="0"><g class="apexcharts-series-markers"><circle id="SvgjsCircle1083" r="0" cx="0" cy="0" class="apexcharts-marker wqywwseo6 no-pointer-events" stroke="#ffffff" fill="#28c76f" fill-opacity="1" stroke-width="2" stroke-opacity="0.9" default-marker-size="0"></circle></g></g></g><g id="SvgjsG1057" class="apexcharts-datalabels" data:realIndex="0"></g></g><line id="SvgjsLine1078" x1="0" y1="0" x2="297" y2="0" stroke="" stroke-dasharray="0" stroke-width="1" class="apexcharts-ycrosshairs"></line><line id="SvgjsLine1079" x1="0" y1="0" x2="297" y2="0" stroke-dasharray="0" stroke-width="0" class="apexcharts-ycrosshairs-hidden"></line><g id="SvgjsG1080" class="apexcharts-yaxis-annotations"></g><g id="SvgjsG1081" class="apexcharts-xaxis-annotations"></g><g id="SvgjsG1082" class="apexcharts-point-annotations"></g></g><rect id="SvgjsRect1050" width="0" height="0" x="0" y="0" rx="0" ry="0" opacity="1" stroke-width="0" stroke="none" stroke-dasharray="0" fill="#fefefe"></rect><g id="SvgjsG1066" class="apexcharts-yaxis" rel="0" transform="translate(-18, 0)"></g><g id="SvgjsG1048" class="apexcharts-annotations"></g></svg>