<svg id="SvgjsSvg1084" width="297" height="70" xmlns="http://www.w3.org/2000/svg" version="1.1" xmlns:xlink="http://www.w3.org/1999/xlink" xmlns:svgjs="http://svgjs.com/svgjs" class="apexcharts-svg" xmlns:data="ApexChartsNS" transform="translate(0, 0)" style="background: transparent;"><g id="SvgjsG1086" class="apexcharts-inner apexcharts-graphical" transform="translate(0, 0)"><defs id="SvgjsDefs1085"><clipPath id="gridRectMasktehk4tpo"><rect id="SvgjsRect1091" width="303.5" height="72.5" x="-3.25" y="-1.25" rx="0" ry="0" opacity="1" stroke-width="0" stroke="none" stroke-dasharray="0" fill="#fff"></rect></clipPath><clipPath id="gridRectMarkerMasktehk4tpo"><rect id="SvgjsRect1092" width="301" height="74" x="-2" y="-2" rx="0" ry="0" opacity="1" stroke-width="0" stroke="none" stroke-dasharray="0" fill="#fff"></rect></clipPath><linearGradient id="SvgjsLinearGradient1097" x1="0" y1="0" x2="0" y2="1"><stop id="SvgjsStop1098" stop-opacity="0.7" stop-color="rgba(255,159,67,0.7)" offset="0"></stop><stop id="SvgjsStop1099" stop-opacity="0.5" stop-color="rgba(255,245,236,0.5)" offset="0.8"></stop><stop id="SvgjsStop1100" stop-opacity="0.5" stop-color="rgba(255,245,236,0.5)" offset="1"></stop></linearGradient></defs><line id="SvgjsLine1090" x1="0" y1="0" x2="0" y2="70" stroke="" stroke-dasharray="3" class="apexcharts-xcrosshairs" x="0" y="0" width="1" height="70" fill="#b1b9c4" filter="none" fill-opacity="0.9" stroke-width="1"></line><g id="SvgjsG1103" class="apexcharts-xaxis" transform="translate(0, 0)"><g id="SvgjsG1104" class="apexcharts-xaxis-texts-g" transform="translate(0, -4)"></g></g><g id="SvgjsG1106" class="apexcharts-grid"><g id="SvgjsG1107" class="apexcharts-gridlines-horizontal" style="display: none;"><line id="SvgjsLine1109" x1="0" y1="0" x2="297" y2="0" stroke="#e0e0e0" stroke-dasharray="0" class="apexcharts-gridline"></line><line id="SvgjsLine1110" x1="0" y1="14" x2="297" y2="14" stroke="#e0e0e0" stroke-dasharray="0" class="apexcharts-gridline"></line><line id="SvgjsLine1111" x1="0" y1="28" x2="297" y2="28" stroke="#e0e0e0" stroke-dasharray="0" class="apexcharts-gridline"></line><line id="SvgjsLine1112" x1="0" y1="42" x2="297" y2="42" stroke="#e0e0e0" stroke-dasharray="0" class="apexcharts-gridline"></line><line id="SvgjsLine1113" x1="0" y1="56" x2="297" y2="56" stroke="#e0e0e0" stroke-dasharray="0" class="apexcharts-gridline"></line><line id="SvgjsLine1114" x1="0" y1="70" x2="297" y2="70" stroke="#e0e0e0" stroke-dasharray="0" class="apexcharts-gridline"></line></g><g id="SvgjsG1108" class="apexcharts-gridlines-vertical" style="display: none;"></g><line id="SvgjsLine1116" x1="0" y1="70" x2="297" y2="70" stroke="transparent" stroke-dasharray="0"></line><line id="SvgjsLine1115" x1="0" y1="1" x2="0" y2="70" stroke="transparent" stroke-dasharray="0"></line></g><g id="SvgjsG1093" class="apexcharts-area-series apexcharts-plot-series"><g id="SvgjsG1094" class="apexcharts-series" seriesName="Orders" data:longestSeries="true" rel="1" data:realIndex="0"><path id="SvgjsPath1101" d="M0 70L0 42C17.324999999999996 42 32.175 7 49.49999999999999 7C66.82499999999999 7 81.67499999999998 56 98.99999999999999 56C116.32499999999999 56 131.175 7 148.5 7C165.825 7 180.67499999999998 63 197.99999999999997 63C215.32499999999996 63 230.17499999999998 28 247.49999999999997 28C264.825 28 279.675 56 297 56C297 56 297 56 297 70M297 56C297 56 297 56 297 56 " fill="url(#SvgjsLinearGradient1097)" fill-opacity="1" stroke-opacity="1" stroke-linecap="butt" stroke-width="0" stroke-dasharray="0" class="apexcharts-area" index="0" clip-path="url(#gridRectMasktehk4tpo)" pathTo="M 0 70L 0 42C 17.324999999999996 42 32.175 7 49.49999999999999 7C 66.82499999999999 7 81.67499999999998 56 98.99999999999999 56C 116.32499999999999 56 131.175 7 148.5 7C 165.825 7 180.67499999999998 63 197.99999999999997 63C 215.32499999999996 63 230.17499999999998 28 247.49999999999997 28C 264.825 28 279.675 56 297 56C 297 56 297 56 297 70M 297 56z" pathFrom="M -1 112L -1 112L 49.49999999999999 112L 98.99999999999999 112L 148.5 112L 197.99999999999997 112L 247.49999999999997 112L 297 112"></path><path id="SvgjsPath1102" d="M0 42C17.324999999999996 42 32.175 7 49.49999999999999 7C66.82499999999999 7 81.67499999999998 56 98.99999999999999 56C116.32499999999999 56 131.175 7 148.5 7C165.825 7 180.67499999999998 63 197.99999999999997 63C215.32499999999996 63 230.17499999999998 28 247.49999999999997 28C264.825 28 279.675 56 297 56C297 56 297 56 297 56 " fill="none" fill-opacity="1" stroke="#ff9f43" stroke-opacity="1" stroke-linecap="butt" stroke-width="2.5" stroke-dasharray="0" class="apexcharts-area" index="0" clip-path="url(#gridRectMasktehk4tpo)" pathTo="M 0 42C 17.324999999999996 42 32.175 7 49.49999999999999 7C 66.82499999999999 7 81.67499999999998 56 98.99999999999999 56C 116.32499999999999 56 131.175 7 148.5 7C 165.825 7 180.67499999999998 63 197.99999999999997 63C 215.32499999999996 63 230.17499999999998 28 247.49999999999997 28C 264.825 28 279.675 56 297 56" pathFrom="M -1 112L -1 112L 49.49999999999999 112L 98.99999999999999 112L 148.5 112L 197.99999999999997 112L 247.49999999999997 112L 297 112"></path><g id="SvgjsG1095" class="apexcharts-series-markers-wrap" data:realIndex="0"><g class="apexcharts-series-markers"><circle id="SvgjsCircle1122" r="0" cx="0" cy="0" class="apexcharts-marker wi0v4014h no-pointer-events" stroke="#ffffff" fill="#ff9f43" fill-opacity="1" stroke-width="2" stroke-opacity="0.9" default-marker-size="0"></circle></g></g></g><g id="SvgjsG1096" class="apexcharts-datalabels" data:realIndex="0"></g></g><line id="SvgjsLine1117" x1="0" y1="0" x2="297" y2="0" stroke="" stroke-dasharray="0" stroke-width="1" class="apexcharts-ycrosshairs"></line><line id="SvgjsLine1118" x1="0" y1="0" x2="297" y2="0" stroke-dasharray="0" stroke-width="0" class="apexcharts-ycrosshairs-hidden"></line><g id="SvgjsG1119" class="apexcharts-yaxis-annotations"></g><g id="SvgjsG1120" class="apexcharts-xaxis-annotations"></g><g id="SvgjsG1121" class="apexcharts-point-annotations"></g></g><rect id="SvgjsRect1089" width="0" height="0" x="0" y="0" rx="0" ry="0" opacity="1" stroke-width="0" stroke="none" stroke-dasharray="0" fill="#fefefe"></rect><g id="SvgjsG1105" class="apexcharts-yaxis" rel="0" transform="translate(-18, 0)"></g><g id="SvgjsG1087" class="apexcharts-annotations"></g></svg>