<svg xmlns="http://www.w3.org/2000/svg" version="1.1" xmlns:xlink="http://www.w3.org/1999/xlink" xmlns:svgjs="http://svgjs.com/svgjs" width="312" height="312" x="0" y="0" viewBox="0 0 511.991 511.991" style="enable-background:new 0 0 512 512" xml:space="preserve" class=""><g><g><path d="m258.665 150.196h79.169c6.893 0 12.5-5.607 12.5-12.5v-79.508c0-6.893-5.607-12.5-12.5-12.5h-79.169c-6.893 0-12.5 5.607-12.5 12.5v18.812c0 4.143 3.357 7.5 7.5 7.5s7.5-3.357 7.5-7.5v-16.312h74.169v74.509h-74.169v-22.111c0-4.143-3.357-7.5-7.5-7.5s-7.5 3.357-7.5 7.5v24.611c0 6.892 5.607 12.499 12.5 12.499z" fill="#c8cdd8" data-original="#000000" class=""></path><path d="m118.983 138.075h102.173c4.143 0 7.5-3.357 7.5-7.5s-3.357-7.5-7.5-7.5h-102.173c-4.143 0-7.5 3.357-7.5 7.5s3.358 7.5 7.5 7.5z" fill="#c8cdd8" data-original="#000000" class=""></path><path d="m289.959 193.979c0-4.143-3.357-7.5-7.5-7.5h-103.101c-4.143 0-7.5 3.357-7.5 7.5s3.357 7.5 7.5 7.5h103.101c4.142 0 7.5-3.358 7.5-7.5z" fill="#c8cdd8" data-original="#000000" class=""></path><path d="m118.983 105.442h102.173c4.143 0 7.5-3.357 7.5-7.5s-3.357-7.5-7.5-7.5h-102.173c-4.143 0-7.5 3.357-7.5 7.5s3.358 7.5 7.5 7.5z" fill="#c8cdd8" data-original="#000000" class=""></path><path d="m118.983 72.809h102.173c4.143 0 7.5-3.357 7.5-7.5s-3.357-7.5-7.5-7.5h-102.173c-4.143 0-7.5 3.357-7.5 7.5s3.358 7.5 7.5 7.5z" fill="#c8cdd8" data-original="#000000" class=""></path><path d="m118.983 284.461h153.855c4.143 0 7.5-3.357 7.5-7.5s-3.357-7.5-7.5-7.5h-153.855c-4.143 0-7.5 3.357-7.5 7.5s3.358 7.5 7.5 7.5z" fill="#c8cdd8" data-original="#000000" class=""></path><path d="m118.983 242.504h121.678c4.143 0 7.5-3.357 7.5-7.5s-3.357-7.5-7.5-7.5h-121.678c-4.143 0-7.5 3.357-7.5 7.5s3.358 7.5 7.5 7.5z" fill="#c8cdd8" data-original="#000000" class=""></path><path d="m343.299 227.504h-70.128c-4.143 0-7.5 3.357-7.5 7.5s3.357 7.5 7.5 7.5h70.128c4.143 0 7.5-3.357 7.5-7.5s-3.358-7.5-7.5-7.5z" fill="#c8cdd8" data-original="#000000" class=""></path><path d="m503.269 463.925c-.091-.09-.185-.177-.28-.262l-46.153-41.067c7.292-13.286 11.454-28.173 12.007-43.689.147-4.14-3.089-7.615-7.228-7.763-4.147-.123-7.614 3.089-7.763 7.228-1.136 44.18-38.556 80.57-82.825 80.128-45.7 0-82.88-37.305-82.88-83.158-.693-44.937 38.003-83.794 82.88-83.158 34.96 0 66.338 22.185 78.081 55.203 1.388 3.902 5.681 5.944 9.579 4.554 3.903-1.388 5.941-5.677 4.554-9.579-12.527-35.224-43.989-59.998-80.398-64.452v-265.41c0-6.893-5.607-12.5-12.5-12.5h-278.87c-6.893 0-12.5 5.607-12.5 12.5v27.127h-26.975c-6.893 0-12.5 5.607-12.5 12.5v27.126h-26.976c-6.893 0-12.5 5.607-12.5 12.5v374.146c0 6.893 5.607 12.5 12.5 12.5h238.813c6.893 0 12.5-5.607 12.5-12.5v-27.127h32.559c17.968 21.23 44.757 34.729 74.634 34.729 16.418 0 32.268-4.059 46.371-11.685l46.504 41.65c11.058 10.955 28.975 11.56 40.07.61 11.103-10.611 10.432-29.656-.704-40.151zm-409.296-448.925h273.87v262.247c-31.876 1.039-60.843 17.613-78.154 43.496h-30.452c-4.143 0-7.5 3.357-7.5 7.5s3.357 7.5 7.5 7.5h22.206c-1.004 2.284-1.929 4.615-2.765 6.997-3.67 10.455-5.53 21.425-5.53 32.602 0 2.968.14 5.902.398 8.804h-104.342c10.294-9.862 16.726-23.747 16.726-39.12v-9.282h40.799c4.143 0 7.5-3.357 7.5-7.5s-3.357-7.5-7.5-7.5h-48.299c-4.143 0-7.5 3.357-7.5 7.5v16.782c0 21.571-17.47 39.12-38.942 39.12h-38.015zm-39.475 408.771v-102.521c0-4.143-3.357-7.5-7.5-7.5s-7.5 3.357-7.5 7.5v105.021c0 6.893 5.607 12.5 12.5 12.5h196.837v24.627h-233.813v-369.145h24.476v195.296c0 4.143 3.357 7.5 7.5 7.5s7.5-3.357 7.5-7.5v-234.922h24.476v337.019c0 4.143 3.357 7.5 7.5 7.5h189.591c2.176 8.727 5.517 16.995 9.852 24.626h-231.419zm438.917 69.65c-5.19 5.174-13.994 4.646-19.357-.998l-43.618-39.066c6.733-5.158 12.942-11.356 18.106-18.061l44.315 39.433c5.114 4.924 5.707 13.729.554 18.692z" fill="#c8cdd8" data-original="#000000" class=""></path><path d="m371.028 311.238c-34.608-.493-64.456 29.462-63.93 64.104 0 35.347 28.679 64.103 63.93 64.103 35.25 0 63.929-28.756 63.929-64.103s-28.679-64.104-63.929-64.104zm0 113.206c-26.979 0-48.93-22.027-48.93-49.103-.41-26.532 22.436-49.479 48.93-49.104 26.979 0 48.929 22.027 48.929 49.104 0 27.076-21.949 49.103-48.929 49.103z" fill="#c8cdd8" data-original="#000000" class=""></path></g></g></svg>